<svg width="64" height="64" viewBox="0 0 64 64" fill="none" xmlns="http://www.w3.org/2000/svg">
  <!-- Amazon Transparency Logo -->
  <!-- Top checkerboard/pixelated pattern -->
  <!-- Row 1 -->
  <rect x="8" y="0" width="8" height="8" fill="#000"/>
  <rect x="24" y="0" width="8" height="8" fill="#000"/>
  <rect x="40" y="0" width="24" height="8" fill="#000"/>
  
  <!-- Row 2 -->
  <rect x="0" y="8" width="8" height="8" fill="#000"/>
  <rect x="16" y="8" width="8" height="8" fill="#000"/>
  <rect x="32" y="8" width="8" height="8" fill="#000"/>
  <rect x="48" y="8" width="16" height="8" fill="#000"/>
  
  <!-- Row 3 -->
  <rect x="8" y="16" width="8" height="8" fill="#000"/>
  <rect x="24" y="16" width="8" height="8" fill="#000"/>
  <rect x="40" y="16" width="8" height="8" fill="#000"/>
  
  <!-- Vertical stem of T with label shape -->
  <rect x="40" y="24" width="8" height="32" fill="#000"/>
  
  <!-- Label bottom with curved corner -->
  <path d="M40 56 L40 64 L56 64 C56 64 48 64 48 56 L48 56 Z" fill="#000"/>
  <rect x="40" y="56" width="8" height="8" fill="#000"/>
</svg>
